DDR Presents

Bollywood Movie

1920: Evil Returns 

(2012)


**720p DVDRip 5.1 AC3 ESubs**

Complete name                            : 720p-dvdrip-1920er-ddr.mkv
Source					 : DVD9 [DDR]
Ripper					 : th3obr0

Format                                   : Matroska
Format version                           : Version 2
File size                                : 3.12 GiB
Duration                                 : 1h 59mn
Overall bit rate                         : 3 748 Kbps
Encoded date                             : UTC 2012-12-30 07:24:50
Writing application                      : mkvmerge v5.7.0 ('The Whirlwind') built on Jul  8 

2012 20:08:51
Writing library                          : libebml v1.2.3 + libmatroska v1.3.0

Video
ID                                       : 1
Format                                   : AVC
Format/Info                              : Advanced Video Codec
Format profile                           : High@L4.2
Format settings, CABAC                   : Yes
Format settings, ReFrames                : 4 frames
Codec ID                                 : V_MPEG4/ISO/AVC
Duration                                 : 1h 59mn
Bit rate                                 : 3 297 Kbps
Width                                    : 1 280 pixels
Height                                   : 544 pixels
Display aspect ratio                     : 2.35:1
Frame rate                               : 29.970 fps
Color space                              : YUV
Chroma subsampling                       : 4:2:0
Bit depth                                : 8 bits
Scan type                                : Progressive
Bits/(Pixel*Frame)                       : 0.158
Stream size                              : 2.69 GiB (86%)
Title                                    : 1920 720p [DDR]
Writing library                          : x264 core 125 r2200 999b753
Default                                  : Yes
Forced                                   : No

Audio
ID                                       : 2
Format                                   : AC-3
Format/Info                              : Audio Coding 3
Mode extension                           : CM (complete main)
Format settings, Endianness              : Big
Codec ID                                 : A_AC3
Duration                                 : 1h 59mn
Bit rate mode                            : Constant
Bit rate                                 : 448 Kbps
Channel(s)                               : 6 channels
Channel positions                        : Front: L C R, Side: L R, LFE
Sampling rate                            : 48.0 KHz
Bit depth                                : 16 bits
Compression mode                         : Lossy
Stream size                              : 382 MiB (12%)
Title                                    : Hindi 5.1 [DDR]
Language                                 : Hindi
Default                                  : Yes
Forced                                   : No
 
http://img580.imageshack.us/img580/2536/20573.png 
http://img707.imageshack.us/img707/4879/75360.png 
http://img138.imageshack.us/img138/7245/58747.png 
http://img24.imageshack.us/img24/1747/77694.png 
http://img705.imageshack.us/img705/1917/92959.png

